<svg width="512" height="512" viewBox="0 0 512 512" fill="none" xmlns="http://www.w3.org/2000/svg">
<rect width="512" height="512" fill="white"/>
<path d="M206.335 269.356C206.335 274.472 205.419 279.247 203.585 283.681C201.752 288.073 199.258 291.889 196.103 295.129C192.948 298.327 189.238 300.864 184.975 302.74C180.754 304.573 176.213 305.49 171.353 305.49C166.535 305.49 161.994 304.573 157.73 302.74C153.509 300.864 149.8 298.327 146.602 295.129C143.447 291.889 140.953 288.073 139.12 283.681C137.286 279.247 136.37 274.472 136.37 269.356C136.37 264.154 137.286 259.336 139.12 254.902C140.953 250.468 143.447 246.652 146.602 243.454C149.8 240.214 153.509 237.677 157.73 235.844C161.994 234.011 166.535 233.094 171.353 233.094C176.213 233.094 180.754 233.968 184.975 235.716C189.238 237.421 192.948 239.873 196.103 243.071C199.258 246.226 201.752 250.042 203.585 254.518C205.419 258.953 206.335 263.898 206.335 269.356ZM188.748 269.356C188.748 266.542 188.279 264.005 187.341 261.745C186.446 259.443 185.209 257.482 183.632 255.862C182.054 254.199 180.2 252.941 178.068 252.088C175.978 251.193 173.74 250.745 171.353 250.745C168.965 250.745 166.705 251.193 164.573 252.088C162.484 252.941 160.651 254.199 159.073 255.862C157.538 257.482 156.323 259.443 155.428 261.745C154.533 264.005 154.085 266.542 154.085 269.356C154.085 271.999 154.533 274.451 155.428 276.71C156.323 278.97 157.538 280.931 159.073 282.594C160.651 284.257 162.484 285.579 164.573 286.559C166.705 287.497 168.965 287.966 171.353 287.966C173.74 287.966 175.978 287.519 178.068 286.623C180.2 285.728 182.054 284.47 183.632 282.85C185.209 281.23 186.446 279.269 187.341 276.966C188.279 274.664 188.748 272.127 188.748 269.356ZM282.185 304.211H277.964L271.185 294.81C269.522 296.302 267.753 297.709 265.877 299.03C264.043 300.309 262.103 301.439 260.058 302.42C258.011 303.358 255.9 304.104 253.726 304.659C251.593 305.213 249.418 305.49 247.201 305.49C242.385 305.49 237.844 304.595 233.579 302.804C229.358 300.97 225.649 298.455 222.452 295.257C219.297 292.017 216.802 288.201 214.969 283.809C213.136 279.375 212.219 274.557 212.219 269.356C212.219 264.197 213.136 259.4 214.969 254.966C216.802 250.532 219.297 246.695 222.452 243.454C225.649 240.214 229.358 237.677 233.579 235.844C237.844 234.011 242.385 233.094 247.201 233.094C248.737 233.094 250.315 233.222 251.935 233.478C253.597 233.733 255.196 234.16 256.731 234.757C258.308 235.311 259.779 236.057 261.145 236.995C262.509 237.933 263.659 239.084 264.597 240.449V208.471H282.185V304.211ZM264.597 269.356C264.597 266.968 264.129 264.666 263.19 262.449C262.295 260.189 261.059 258.206 259.481 256.501C257.904 254.753 256.05 253.367 253.917 252.344C251.828 251.278 249.591 250.745 247.201 250.745C244.814 250.745 242.555 251.171 240.422 252.024C238.334 252.877 236.5 254.113 234.923 255.734C233.389 257.311 232.172 259.251 231.278 261.553C230.382 263.856 229.934 266.457 229.934 269.356C229.934 271.871 230.382 274.259 231.278 276.519C232.172 278.778 233.389 280.761 234.923 282.466C236.5 284.172 238.334 285.515 240.422 286.495C242.555 287.476 244.814 287.966 247.201 287.966C249.591 287.966 251.828 287.455 253.917 286.431C256.05 285.366 257.904 283.98 259.481 282.275C261.059 280.526 262.295 278.544 263.19 276.327C264.129 274.067 264.597 271.743 264.597 269.356ZM322.796 287.455C323.477 287.668 324.16 287.817 324.843 287.902C325.524 287.945 326.207 287.966 326.888 287.966C328.595 287.966 330.235 287.732 331.813 287.263C333.39 286.794 334.861 286.133 336.227 285.28C337.634 284.385 338.869 283.319 339.935 282.083C341.043 280.803 341.939 279.397 342.622 277.862L355.413 290.716C353.793 293.019 351.916 295.087 349.785 296.92C347.695 298.753 345.414 300.309 342.94 301.589C340.512 302.868 337.931 303.827 335.203 304.467C332.516 305.149 329.745 305.49 326.888 305.49C322.072 305.49 317.531 304.595 313.266 302.804C309.045 301.013 305.337 298.519 302.139 295.321C298.984 292.123 296.49 288.329 294.656 283.937C292.823 279.503 291.906 274.643 291.906 269.356C291.906 263.941 292.823 258.995 294.656 254.518C296.49 250.042 298.984 246.226 302.139 243.071C305.337 239.916 309.045 237.464 313.266 235.716C317.531 233.968 322.072 233.094 326.888 233.094C329.745 233.094 332.539 233.435 335.267 234.117C337.995 234.799 340.575 235.78 343.006 237.059C345.478 238.338 347.781 239.916 349.912 241.792C352.043 243.625 353.92 245.693 355.54 247.995L322.796 287.455ZM331.749 251.449C330.939 251.15 330.129 250.958 329.319 250.873C328.551 250.788 327.741 250.745 326.888 250.745C324.501 250.745 322.242 251.193 320.109 252.088C318.021 252.941 316.187 254.177 314.61 255.798C313.076 257.418 311.859 259.379 310.965 261.681C310.069 263.941 309.621 266.499 309.621 269.356C309.621 269.995 309.642 270.72 309.685 271.53C309.771 272.34 309.878 273.172 310.005 274.024C310.175 274.834 310.368 275.623 310.581 276.391C310.793 277.158 311.072 277.84 311.412 278.437L331.749 251.449ZM381.826 304.211H364.366V235.716H368.588L374.343 243.838C377.157 241.28 380.355 239.319 383.936 237.954C387.518 236.547 391.226 235.844 395.064 235.844H410.476V253.239H395.064C393.23 253.239 391.503 253.58 389.883 254.263C388.262 254.945 386.857 255.883 385.663 257.077C384.468 258.27 383.53 259.677 382.849 261.298C382.166 262.918 381.826 264.645 381.826 266.478V304.211ZM472.064 304.211H414.954L443.797 253.239H414.954V235.844H472.064L443.221 286.815H472.064V304.211Z" fill="#3888FF"/>
<path d="M73.3348 258.048L107.816 289.728L139.105 317.86L123.042 337.891L39.936 259.667L121.156 175.104L139.105 190.624L107.816 222.593L73.3348 258.048Z" fill="black"/>
</svg>
